<?xml version="1.0" encoding="UTF-8"?>
<svg version="1.1" xmlns="http://www.w3.org/2000/svg" width="380" height="380">
<path d="M0 0 C0.78681152 0.00182281 1.57362305 0.00364563 2.38427734 0.00552368 C14.56696224 0.05290971 26.32230898 0.65527694 38.25 3.3125 C39.05711426 3.48410645 39.86422852 3.65571289 40.69580078 3.83251953 C77.15757177 11.71671697 109.81351885 30.01951189 136.25 56.3125 C136.74951172 56.8079834 137.24902344 57.3034668 137.76367188 57.81396484 C171.60933238 91.84667874 190.69441834 139.96713993 190.57363892 187.76220703 C190.56996307 188.52130371 190.56628723 189.28040039 190.5625 190.0625 C190.55976578 191.24271729 190.55976578 191.24271729 190.55697632 192.44677734 C190.50959029 204.62946224 189.90722306 216.38480898 187.25 228.3125 C187.07839355 229.11961426 186.90678711 229.92672852 186.72998047 230.75830078 C178.84578303 267.22007177 160.54298811 299.87601885 134.25 326.3125 C133.5067749 327.06176758 133.5067749 327.06176758 132.74853516 327.82617188 C98.71582126 361.67183238 50.59536007 380.75691834 2.80029297 380.63613892 C2.04119629 380.63246307 1.28209961 380.62878723 0.5 380.625 C-0.68021729 380.62226578 -0.68021729 380.62226578 -1.88427734 380.61947632 C-14.06696224 380.57209029 -25.82230898 379.96972306 -37.75 377.3125 C-38.55711426 377.14089355 -39.36422852 376.96928711 -40.19580078 376.79248047 C-76.65757177 368.90828303 -109.31351885 350.60548811 -135.75 324.3125 C-136.24951172 323.8170166 -136.74902344 323.3215332 -137.26367188 322.81103516 C-171.10933238 288.77832126 -190.19441834 240.65786007 -190.07363892 192.86279297 C-190.06996307 192.10369629 -190.06628723 191.34459961 -190.0625 190.5625 C-190.06067719 189.77568848 -190.05885437 188.98887695 -190.05697632 188.17822266 C-190.00959029 175.99553776 -189.40722306 164.24019102 -186.75 152.3125 C-186.57839355 151.50538574 -186.40678711 150.69827148 -186.22998047 149.86669922 C-178.34578303 113.40492823 -160.04298811 80.74898115 -133.75 54.3125 C-133.2545166 53.81298828 -132.7590332 53.31347656 -132.24853516 52.79882812 C-97.3923745 18.13424675 -48.77757938 -0.23620007 0 0 Z " fill="#000000" transform="translate(189.75,-0.3125)"/>
<path d="M0 0 C69.96 0 139.92 0 212 0 C211.24296286 3.78518571 210.80808192 5.751183 209.1015625 8.94140625 C208.5144751 10.04875122 208.5144751 10.04875122 207.91552734 11.1784668 C207.48965332 11.96519775 207.0637793 12.75192871 206.625 13.5625 C205.96105225 14.80737183 205.96105225 14.80737183 205.28369141 16.07739258 C201.57647999 23.00258825 197.76514432 29.87013937 193.96069336 36.7421875 C190.92723052 42.24611444 188.04012387 47.79941904 185.26464844 53.43701172 C177.72197832 68.72163486 169.71527864 83.78651205 161.75830078 98.85864258 C158.3118414 105.39176613 154.90390606 111.94462123 151.5 118.5 C147.26879015 126.64790469 143.01995214 134.78584777 138.73388672 142.9050293 C136.52088444 147.10012348 134.32092967 151.30155193 132.13671875 155.51171875 C126.63465395 166.11321441 121.04349536 176.65534919 115.30273438 187.12963867 C112.20870634 192.77664856 109.14127786 198.43604616 106.125 204.125 C105.79218018 204.75067871 105.45936035 205.37635742 105.11645508 206.02099609 C101.97506895 211.96694066 99.00994124 217.98011753 96 224 C67.95 224 39.9 224 11 224 C13.25146689 217.24559933 13.25146689 217.24559933 15.03125 213.890625 C15.42441406 213.14554688 15.81757813 212.40046875 16.22265625 211.6328125 C16.64417969 210.84648437 17.06570312 210.06015625 17.5 209.25 C17.94214844 208.41726563 18.38429687 207.58453125 18.83984375 206.7265625 C22.23354456 200.36217175 25.72821289 194.05644638 29.25244141 187.76367188 C32.64039386 181.69672006 35.88522529 175.56188514 39.10058594 169.40209961 C42.4089092 163.08051626 45.81725359 156.81725555 49.25 150.5625 C52.81290155 144.06881563 56.26774172 137.55459319 59.51953125 130.8984375 C61.72025007 126.58990619 64.14116854 122.41133949 66.53930664 118.21044922 C69.59953215 112.80899391 72.38369795 107.30122684 75.11621094 101.72851562 C77.64225372 96.6158656 80.45115131 91.71954478 83.37109375 86.8203125 C84.92478943 84.13022071 86.32403061 81.41554085 87.6875 78.625 C91.12608424 71.59873302 94.91170907 64.7668029 98.6862793 57.91650391 C99.18426025 57.01077637 99.68224121 56.10504883 100.1953125 55.171875 C100.63891113 54.3684668 101.08250977 53.56505859 101.53955078 52.73730469 C103.42967764 49.1946597 105.20428771 45.59142457 107 42 C78.62 42 50.24 42 21 42 C12.28448276 26.74784483 12.28448276 26.74784483 8.51953125 19.03125 C7.4080531 16.81400823 6.26994106 14.63957295 5.07421875 12.46875 C4.7501001 11.879729 4.42598145 11.29070801 4.09204102 10.68383789 C3.17326235 9.02465491 2.24699132 7.36962736 1.3203125 5.71484375 C0 3 0 3 0 0 Z " fill="#B0B1B3" transform="translate(138,102)"/>
<path d="M0 0 C28.05 0 56.1 0 85 0 C88.99063074 7.18313533 92.9282232 14.38472443 96.8125 21.625 C97.13303345 22.2221582 97.45356689 22.81931641 97.78381348 23.43457031 C103.39282811 33.89389894 108.85242064 44.42603106 114.26870728 54.98617554 C118.81820691 63.85121622 123.48779483 72.6350038 128.33862305 81.33959961 C131.37851358 86.81232848 134.26011258 92.34190148 136.98950195 97.97607422 C138.81239217 101.71841907 140.7497035 105.35661069 142.8203125 108.96875 C143.53368774 110.23900024 143.53368774 110.23900024 144.26147461 111.53491211 C145.19149711 113.18334952 146.14203854 114.82042689 147.11547852 116.44360352 C150.24408554 122.05250433 150.24408554 122.05250433 149.140625 126.3359375 C148.44953752 127.57013594 147.73249972 128.78992072 147 130 C146.08838232 131.78958679 145.1841405 133.58293994 144.28515625 135.37890625 C143.21424222 137.4418231 142.13983761 139.50293052 141.0625 141.5625 C140.19915039 143.2175354 140.19915039 143.2175354 139.31835938 144.90600586 C134.18940659 154.70396289 128.90801794 164.41406072 123.58398438 174.10693359 C120.62057884 179.51944217 117.68663233 184.94793316 114.75 190.375 C114.17636719 191.43468994 113.60273438 192.49437988 113.01171875 193.58618164 C111.67418342 196.05729459 110.33693316 198.52856123 109 201 C108.34 201 107.68 201 107 201 C106.18780863 199.47714117 105.3756254 197.954278 104.56347656 196.43139648 C103.8416059 195.07797185 103.11959596 193.72462149 102.39746094 192.37133789 C100.6316198 189.06171891 98.86710421 185.75143533 97.109375 182.4375 C89.61338192 168.32739538 82.01518251 154.26898827 74.125 140.375 C71.09472928 135.03696444 68.28774854 129.63257181 65.58984375 124.1171875 C63.68806188 120.38838668 61.63588028 116.760321 59.5625 113.125 C56.80720445 108.29187542 54.18365018 103.44369355 51.75 98.4375 C48.05040876 90.89102699 43.87020559 83.63540371 39.70385742 76.33886719 C36.35559194 70.45666085 33.1922181 64.55816324 30.24609375 58.46484375 C28.9860849 55.97247515 27.59464399 53.6240403 26.125 51.25 C23.33175887 46.69223059 20.95662182 41.97697084 18.61181641 37.18017578 C16.22155964 32.33825911 13.71479905 27.56522443 11.15234375 22.8125 C10.81264053 22.18213837 10.47293732 21.55177673 10.12294006 20.90231323 C8.39771369 17.70494547 6.66587636 14.51129696 4.92797852 11.32080078 C4.28522904 10.13318671 3.64256572 8.945526 3 7.7578125 C2.4225 6.6970752 1.845 5.63633789 1.25 4.54345703 C0 2 0 2 0 0 Z " fill="#BEBFC1" transform="translate(29,102)"/>
<path d="M0 0 C28.05 0 56.1 0 85 0 C85.99 2.475 85.99 2.475 87 5 C86.34 5 85.68 5 85 5 C85 5.99 85 6.98 85 8 C83.68 7.67 82.36 7.34 81 7 C81 5.02 81 3.04 81 1 C73.73286959 1.0843001 66.465958 1.17914257 59.19914436 1.28752708 C55.82502496 1.33751898 52.45093731 1.38384837 49.07666016 1.421875 C45.19935371 1.46737328 41.32240948 1.52539279 37.4453125 1.5859375 C35.6233989 1.60326431 35.6233989 1.60326431 33.76467896 1.62094116 C32.08316238 1.6507457 32.08316238 1.6507457 30.36767578 1.68115234 C29.37728302 1.69447601 28.38689026 1.70779968 27.3664856 1.7215271 C24.81264305 1.77427446 24.81264305 1.77427446 23 4 C22.67 4.66 22.34 5.32 22 6 C22.66 6.33 23.32 6.66 24 7 C25.40019306 9.64480911 26.70776578 12.30210661 28 15 C29.03671732 17.1066096 30.07893172 19.21051809 31.125 21.3125 C31.41358887 21.89346436 31.70217773 22.47442871 31.99951172 23.07299805 C33.82000772 26.71446989 35.69266754 30.32407343 37.60546875 33.91796875 C38.05325684 34.75996826 38.50104492 35.60196777 38.96240234 36.46948242 C39.84525484 38.12423218 40.73213849 39.77683915 41.62353516 41.42700195 C43.82197467 45.5463702 45.69216859 49.49123313 47 54 C47.66 54 48.32 54 49 54 C49.44988281 54.92296875 49.89976563 55.8459375 50.36328125 56.796875 C54.64917674 65.51395058 59.1908709 74.05225629 63.91333008 82.5402832 C67.25811025 88.57909675 70.42630345 94.68365431 73.45117188 100.88867188 C74.77364255 103.59438321 76.12300898 106.19709393 77.71875 108.75390625 C79 111 79 111 79 114 C79.66 114 80.32 114 81 114 C82.29592249 116.70636836 83.58683165 119.4149434 84.875 122.125 C85.42220703 123.26582031 85.42220703 123.26582031 85.98046875 124.4296875 C91.36546295 135.78712982 91.36546295 135.78712982 91 142 C91.99 142 92.98 142 94 142 C97 144 97 144 97.625 145.83984375 C97.74875 146.53207031 97.8725 147.22429687 98 147.9375 C98.61039794 151.33919688 99.50015672 152.65184624 102 155 C104.87951261 159.08194644 107.57775163 162.91539656 106.8125 168.0625 C106.544375 169.031875 106.27625 170.00125 106 171 C107.32 171 108.64 171 110 171 C110.27529541 170.40630615 110.55059082 169.8126123 110.83422852 169.20092773 C111.94469629 167.10441108 113.08691054 165.55492998 114.65234375 163.78515625 C115.43750366 162.88978149 115.43750366 162.88978149 116.23852539 161.97631836 C116.79918701 161.3447583 117.35984863 160.71319824 117.9375 160.0625 C119.12304516 158.71150703 120.30793048 157.35993477 121.4921875 156.0078125 C122.08483398 155.33266602 122.67748047 154.65751953 123.28808594 153.96191406 C125.74445902 151.14682364 128.15692431 148.29600465 130.5625 145.4375 C136.33410876 138.58986485 142.16430301 131.79303646 148 125 C148 128.60028475 147.0234777 130.24396011 145.359375 133.42578125 C144.78952881 134.52108154 144.21968262 135.61638184 143.63256836 136.74487305 C143.00533381 137.93423408 142.37780366 139.12343927 141.75 140.3125 C141.10720897 141.53996638 140.46471536 142.76758855 139.82250977 143.99536133 C134.52077792 154.10695276 129.06974211 164.13526161 123.56787109 174.13916016 C120.60800427 179.53992619 117.68069172 184.95836434 114.75 190.375 C114.17628662 191.43485107 113.60257324 192.49470215 113.01147461 193.58666992 C111.67401274 196.05761583 110.33684663 198.5287212 109 201 C108.34 201 107.68 201 107 201 C106.18780863 199.47714117 105.3756254 197.954278 104.56347656 196.43139648 C103.8416059 195.07797185 103.11959596 193.72462149 102.39746094 192.37133789 C100.6316198 189.06171891 98.86710421 185.75143533 97.109375 182.4375 C89.61338192 168.32739538 82.01518251 154.26898827 74.125 140.375 C71.09472928 135.03696444 68.28774854 129.63257181 65.58984375 124.1171875 C63.68806188 120.38838668 61.63588028 116.760321 59.5625 113.125 C56.80720445 108.29187542 54.18365018 103.44369355 51.75 98.4375 C48.05040876 90.89102699 43.87020559 83.63540371 39.70385742 76.33886719 C36.35559194 70.45666085 33.1922181 64.55816324 30.24609375 58.46484375 C28.9860849 55.97247515 27.59464399 53.6240403 26.125 51.25 C23.33175887 46.69223059 20.95662182 41.97697084 18.61181641 37.18017578 C16.22155964 32.33825911 13.71479905 27.56522443 11.15234375 22.8125 C10.81264053 22.18213837 10.47293732 21.55177673 10.12294006 20.90231323 C8.39771369 17.70494547 6.66587636 14.51129696 4.92797852 11.32080078 C4.28522904 10.13318671 3.64256572 8.945526 3 7.7578125 C2.4225 6.6970752 1.845 5.63633789 1.25 4.54345703 C0 2 0 2 0 0 Z " fill="#8B8C8E" transform="translate(29,102)"/>
<path d="M0 0 C1 2 1 2 1 6 C1.97195312 6.20753906 2.94390625 6.41507812 3.9453125 6.62890625 C13.58937446 8.75936397 22.95278171 11.44950967 32.33447266 14.53735352 C37.5249774 16.24204554 42.68604864 17.73065223 48 19 C50.34204017 19.64089613 52.66880716 20.32006875 55 21 C55 21.33 55 21.66 55 22 C26.95 22 -1.1 22 -30 22 C-28.60854034 17.82562101 -27.49553763 14.80803904 -25.375 11.125 C-24.92898437 10.34382813 -24.48296875 9.56265625 -24.0234375 8.7578125 C-23.68570313 8.17773438 -23.34796875 7.59765625 -23 7 C-22.34 7.66 -21.68 8.32 -21 9 C-21.375 11.625 -21.375 11.625 -22 14 C-20.02 14 -18.04 14 -16 14 C-16 13.34 -16 12.68 -16 12 C-10.25 9 -10.25 9 -8 9 C-8 8.34 -8 7.68 -8 7 C-6.68 6.34 -5.36 5.68 -4 5 C-4 4.34 -4 3.68 -4 3 C-2 1.375 -2 1.375 0 0 Z " fill="#7F8183" transform="translate(179,304)"/>
<path d="M0 0 C0 3.60028475 -0.9765223 5.24396011 -2.640625 8.42578125 C-3.21047119 9.52108154 -3.78031738 10.61638184 -4.36743164 11.74487305 C-4.99466619 12.93423408 -5.62219634 14.12343927 -6.25 15.3125 C-6.89279103 16.53996638 -7.53528464 17.76758855 -8.17749023 18.99536133 C-13.47922208 29.10695276 -18.93025789 39.13526161 -24.43212891 49.13916016 C-27.39199573 54.53992619 -30.31930828 59.95836434 -33.25 65.375 C-33.82371338 66.43485107 -34.39742676 67.49470215 -34.98852539 68.58666992 C-36.32598726 71.05761583 -37.66315337 73.5287212 -39 76 C-40.63088613 70.759902 -39.6578764 65.50712996 -39.1875 60.125 C-39.10435547 59.04863281 -39.02121094 57.97226562 -38.93554688 56.86328125 C-38.13574784 47.39412765 -36.4525765 41.94463806 -30.0625 34.9375 C-28.87688227 33.60480855 -27.69199817 32.2714641 -26.5078125 30.9375 C-25.91516602 30.27492188 -25.32251953 29.61234375 -24.71191406 28.9296875 C-22.23734251 26.14032447 -19.83437234 23.29361096 -17.4375 20.4375 C-11.66695153 13.58898398 -5.83568593 6.79302359 0 0 Z " fill="#747577" transform="translate(177,227)"/>
<path d="M0 0 C69.96 0 139.92 0 212 0 C211.67 0.99 211.34 1.98 211 3 C210.67 2.67 210.34 2.34 210 2 C207.31966359 1.88976014 204.66454079 1.8450338 201.98326111 1.84178162 C201.13302779 1.83684364 200.28279448 1.83190566 199.40679651 1.82681805 C196.5354413 1.81136402 193.66410856 1.80306116 190.79272461 1.79467773 C188.74334004 1.78510541 186.69395748 1.77509572 184.64457703 1.76467896 C179.0621824 1.73755381 173.47977925 1.71658559 167.89735484 1.69667697 C162.07035298 1.67486418 156.24337761 1.64745254 150.41639709 1.62062073 C139.37374626 1.57062998 128.33108077 1.52571491 117.28840119 1.48259836 C104.7202804 1.43328041 92.15218618 1.37834216 79.58409107 1.32291877 C53.72275215 1.20900079 27.86138776 1.10218324 2 1 C5.26627448 4.51271313 5.26627448 4.51271313 9.25 7.0625 C9.8275 7.371875 10.405 7.68125 11 8 C11.33333333 9.33333333 11.66666667 10.66666667 12 12 C13.33160325 12.67011567 14.66524218 13.33618996 16 14 C17.81640625 15.62109375 17.81640625 15.62109375 19.5625 17.4375 C20.14128906 18.03433594 20.72007812 18.63117188 21.31640625 19.24609375 C21.87199219 19.82488281 22.42757812 20.40367188 23 21 C24.70563732 22.73526377 26.4032118 24.34721016 28.25 25.9375 C28.8275 26.618125 29.405 27.29875 30 28 C29.65125589 31.7388613 27.59180337 34.27314443 25.4375 37.25 C24.79683594 38.14203125 24.15617187 39.0340625 23.49609375 39.953125 C23.00238281 40.62859375 22.50867188 41.3040625 22 42 C19.38348951 39.65280799 17.92369277 37.25247868 16.328125 34.1328125 C15.83151367 33.17020508 15.33490234 32.20759766 14.82324219 31.21582031 C14.30407227 30.19584961 13.78490234 29.17587891 13.25 28.125 C12.17792002 26.03863236 11.10500754 23.95269227 10.03125 21.8671875 C9.51304687 20.85881836 8.99484375 19.85044922 8.4609375 18.81152344 C6.09962034 14.26725065 3.61663894 9.79344268 1.109375 5.328125 C0 3 0 3 0 0 Z " fill="#767779" transform="translate(138,102)"/>
<path d="M0 0 C0.99 0 1.98 0 3 0 C1.65729678 2.93401033 0.13488676 5.19146175 -2.00390625 7.6015625 C-2.57947266 8.25640625 -3.15503906 8.91125 -3.74804688 9.5859375 C-4.34681641 10.25882812 -4.94558594 10.93171875 -5.5625 11.625 C-6.75314311 12.96972634 -7.94203237 14.31600822 -9.12890625 15.6640625 C-9.65556885 16.25654785 -10.18223145 16.8490332 -10.72485352 17.45947266 C-12.08857588 18.98897476 -12.08857588 18.98897476 -13 21 C-14.32 21 -15.64 21 -17 21 C-17 17.37 -17 13.74 -17 10 C-16.01 10.495 -16.01 10.495 -15 11 C-11.10540926 11.21081851 -11.10540926 11.21081851 -8 10 C-6.77479736 6.99152582 -6.77479736 6.99152582 -6 4 C-4.68 4.33 -3.36 4.66 -2 5 C-1.34 3.35 -0.68 1.7 0 0 Z " fill="#D1D2D4" transform="translate(152,252)"/>
<path d="M0 0 C0.99 0.33 1.98 0.66 3 1 C2.40138258 3.35171131 1.73075648 5.6859378 1 8 C0.01 8.495 0.01 8.495 -1 9 C-3.0095568 11.93704456 -4 13.39222485 -4 17 C-5.65 17 -7.3 17 -9 17 C-7.68925635 12.53817564 -5.92933989 9.00381243 -3.375 5.125 C-2.74335938 4.15820312 -2.11171875 3.19140625 -1.4609375 2.1953125 C-0.73777344 1.10863281 -0.73777344 1.10863281 0 0 Z " fill="#EAEAEC" transform="translate(208,253)"/>
<path d="M0 0 C0.33 0.99 0.66 1.98 1 3 C1.66 3 2.32 3 3 3 C2.8125 4.8125 2.8125 4.8125 2 7 C1.175 7.45375 0.35 7.9075 -0.5 8.375 C-3.33691703 9.81722878 -3.33691703 9.81722878 -3.8125 13.1875 C-3.874375 14.115625 -3.93625 15.04375 -4 16 C-4.99 16.33 -5.98 16.66 -7 17 C-6.67 17.99 -6.34 18.98 -6 20 C-7.98 21.32 -9.96 22.64 -12 24 C-10.42195846 18.39523177 -7.73583615 13.64949374 -4.875 8.625 C-4.17310547 7.37783203 -4.17310547 7.37783203 -3.45703125 6.10546875 C-2.30929451 4.06765046 -1.15686718 2.03264431 0 0 Z " fill="#6D6F6F" transform="translate(193,242)"/>
<path d="M0 0 C1.65 0 3.3 0 5 0 C5 1.98 5 3.96 5 6 C5.66 5.01 6.32 4.02 7 3 C7.66 2.67 8.32 2.34 9 2 C9.05437607 3.58294782 9.09296271 5.16644256 9.125 6.75 C9.14820313 7.63171875 9.17140625 8.5134375 9.1953125 9.421875 C8.99139502 12.1135858 8.36551721 13.69904974 7 16 C5.82558465 13.89983377 4.66035988 11.79541245 3.5 9.6875 C3.16613281 9.09259766 2.83226562 8.49769531 2.48828125 7.88476562 C0.93174886 5.04171156 0 3.29339012 0 0 Z " fill="#C8C8C9" transform="translate(129,287)"/>
<path d="M0 0 C7.7498635 0.52541447 14.6450086 2.55591476 22 5 C22 5.33 22 5.66 22 6 C16.72 6 11.44 6 6 6 C5.34 4.68 4.68 3.36 4 2 C1.94999129 1.19471111 1.94999129 1.19471111 0 1 C0 0.67 0 0.34 0 0 Z " fill="#78797C" transform="translate(208,319)"/>
<path d="M0 0 C2 0 2 0 3.625 1.5 C4.07875 1.995 4.5325 2.49 5 3 C4.67 2.01 4.34 1.02 4 0 C5.65 0 7.3 0 9 0 C8.46972205 4.5073626 6.80388725 7.4539073 4 11 C3.01 11 2.02 11 1 11 C-0.125 5.25 -0.125 5.25 1 3 C0.67 2.01 0.34 1.02 0 0 Z " fill="#D3D3D5" transform="translate(286,207)"/>
<path d="M0 0 C0.66 0.33 1.32 0.66 2 1 C1.95117188 4.02734375 1.95117188 4.02734375 1.90234375 7.0546875 C1.87350758 9.08185404 1.87350758 9.08185404 3 11 C2.34 11.66 1.68 12.32 1 13 C0.01 12.01 -0.98 11.02 -2 10 C-2.33 10.99 -2.66 11.98 -3 13 C-5.0625 14.1875 -5.0625 14.1875 -7 15 C-5.45454854 9.52067211 -2.84456788 4.88570819 0 0 Z " fill="#87888B" transform="translate(219,193)"/>
<path d="M0 0 C2.97 0.495 2.97 0.495 6 1 C6.125 7.75 6.125 7.75 5 10 C5.33 10.99 5.66 11.98 6 13 C5.34 13 4.68 13 4 13 C3.13083113 11.59248779 2.28014851 10.1735479 1.4375 8.75 C0.72400391 7.56664062 0.72400391 7.56664062 -0.00390625 6.359375 C-1.13022151 3.69155375 -1.0169313 2.65498232 0 0 Z " fill="#A0A1A5" transform="translate(104,238)"/>
<path d="M0 0 C0.66 0.33 1.32 0.66 2 1 C0.35 3.64 -1.3 6.28 -3 9 C-5.3431213 8.74438677 -7.67843403 8.40729228 -10 8 C-10.33 7.34 -10.66 6.68 -11 6 C-10.34 6 -9.68 6 -9 6 C-8.67 5.01 -8.34 4.02 -8 3 C-6.68 3.33 -5.36 3.66 -4 4 C-3.67 3.34 -3.34 2.68 -3 2 C-2.67 2.33 -2.34 2.66 -2 3 C-1.34 2.01 -0.68 1.02 0 0 Z " fill="#A3A4A7" transform="translate(237,316)"/>
<path d="M0 0 C0.66 0.66 1.32 1.32 2 2 C1.6442194 5.37991574 0.64284201 8.04288438 -1 11 C-3.475 10.01 -3.475 10.01 -6 9 C-5.34 8.67 -4.68 8.34 -4 8 C-4 6.02 -4 4.04 -4 2 C-2.68 1.34 -1.36 0.68 0 0 Z " fill="#C1C3C4" transform="translate(308,176)"/>
<path d="M0 0 C0.66 0.66 1.32 1.32 2 2 C1.625 4.625 1.625 4.625 1 7 C1.66 7 2.32 7 3 7 C3 7.66 3 8.32 3 9 C0.75 10.6875 0.75 10.6875 -2 12 C-3.32 11.67 -4.64 11.34 -6 11 C-4.02 7.37 -2.04 3.74 0 0 Z " fill="#6D6E70" transform="translate(156,311)"/>
<path d="M0 0 C1.875 0.25 1.875 0.25 4 1 C5.25 3.0625 5.25 3.0625 6 5 C6.99 4.67 7.98 4.34 9 4 C8.814375 4.53625 8.62875 5.0725 8.4375 5.625 C7.88580676 8.61990614 8.39402556 11.03745829 9 14 C6 13 6 13 4.39453125 10.3125 C3.61142578 8.6728125 3.61142578 8.6728125 2.8125 7 C2.28269531 5.906875 1.75289063 4.81375 1.20703125 3.6875 C0 1 0 1 0 0 Z " fill="#BBBCBE" transform="translate(117,266)"/>
<path d="M0 0 C0.99 0 1.98 0 3 0 C1.48446596 3.47775179 -0.5773456 5.9557984 -3.125 8.75 C-4.21167969 9.94882812 -4.21167969 9.94882812 -5.3203125 11.171875 C-5.87460938 11.77515625 -6.42890625 12.3784375 -7 13 C-8.25541557 9.23375329 -7.37061958 7.62811066 -6 4 C-4.68 4.33 -3.36 4.66 -2 5 C-1.34 3.35 -0.68 1.7 0 0 Z " fill="#E9E9EB" transform="translate(152,252)"/>
<path d="M0 0 C2.95051654 3.45922629 5.25855517 6.7838704 7 11 C6.67 11.99 6.34 12.98 6 14 C3.9375 14.6875 3.9375 14.6875 2 15 C-0.21538462 8.6 -0.21538462 8.6 0.875 5.5625 C1.24625 5.046875 1.6175 4.53125 2 4 C1.34 4 0.68 4 0 4 C0 2.68 0 1.36 0 0 Z " fill="#9A9B9C" transform="translate(118,111)"/>
<path d="M0 0 C2.375 0.3125 2.375 0.3125 5 1 C5.66 1.99 6.32 2.98 7 4 C7.98095748 5.01868662 8.97702078 6.02351983 10 7 C9.67 7.99 9.34 8.98 9 10 C6.75 10.0625 6.75 10.0625 4 9 C2.30699573 6.13325156 1.13036377 3.12586629 0 0 Z " fill="#707171" transform="translate(60,161)"/>
<path d="M0 0 C1.32 0.33 2.64 0.66 4 1 C2.74194623 5.50802601 1.09592835 8.4912812 -2 12 C-3 11 -3 11 -3.25 8.25 C-2.97434074 4.66642963 -2.04806115 2.90141996 0 0 Z " fill="#787A7C" transform="translate(202,254)"/>
<path d="M0 0 C1.65 0.33 3.3 0.66 5 1 C3.35 4.3 1.7 7.6 0 11 C-0.33 10.34 -0.66 9.68 -1 9 C-1.99 8.67 -2.98 8.34 -4 8 C-2.66666667 5.33333333 -1.33333333 2.66666667 0 0 Z " fill="#828386" transform="translate(218,223)"/>
<path d="M0 0 C0.33 0.66 0.66 1.32 1 2 C1.99 2.33 2.98 2.66 4 3 C3.25 4.9375 3.25 4.9375 2 7 C1.34 7.12375 0.68 7.2475 0 7.375 C-0.99 7.684375 -0.99 7.684375 -2 8 C-3.3045656 10.99615946 -3.3045656 10.99615946 -4 14 C-4.99 14 -5.98 14 -7 14 C-5.23570801 9.02790438 -2.6060834 4.56561939 0 0 Z " fill="#D6D7D9" transform="translate(225,220)"/>
<path d="M0 0 C0.33 0 0.66 0 1 0 C1 1.65 1 3.3 1 5 C0.34 5 -0.32 5 -1 5 C-1 5.66 -1 6.32 -1 7 C-0.34 7 0.32 7 1 7 C1.33 8.65 1.66 10.3 2 12 C-2.75 13.125 -2.75 13.125 -5 12 C-4.35550393 8.98782888 -3.34977818 6.48344164 -1.9375 3.75 C-1.57527344 3.04359375 -1.21304688 2.3371875 -0.83984375 1.609375 C-0.56269531 1.07828125 -0.28554687 0.5471875 0 0 Z " fill="#9A9B9E" transform="translate(236,161)"/>
<path d="M0 0 C0.99 0.99 1.98 1.98 3 3 C2.34 3.66 1.68 4.32 1 5 C0.83312552 7.58354218 0.83312552 7.58354218 1 10 C-2.465 11.485 -2.465 11.485 -6 13 C-4.31326082 8.50202887 -2.18326108 4.27113698 0 0 Z " fill="#7C7B7F" transform="translate(205,219)"/>
<path d="M0 0 C0.66 0.33 1.32 0.66 2 1 C1.43453326 4.95826719 0.36453668 7.759709 -2 11 C-4.1875 12.3125 -4.1875 12.3125 -6 13 C-4.58707905 8.1725201 -2.57025846 4.2837641 0 0 Z " fill="#6D6E70" transform="translate(171,283)"/>
<path d="M0 0 C2 3 2 3 2 6 C1.67 6.66 1.34 7.32 1 8 C0.01 8 -0.98 8 -2 8 C-1.34 8.33 -0.68 8.66 0 9 C0 9.66 0 10.32 0 11 C-0.61875 11.144375 -1.2375 11.28875 -1.875 11.4375 C-4.03258322 11.93152225 -4.03258322 11.93152225 -6 13 C-4.58707905 8.1725201 -2.57025846 4.2837641 0 0 Z " fill="#6F6F6F" transform="translate(180,266)"/>
<path d="M0 0 C1.67542976 0.28604898 3.34385343 0.61781233 5 1 C5 4.11257569 4.82638376 6.10765685 4 9 C1.27573689 6.64722731 0.1858237 4.37503669 -1 1 C-0.67 0.67 -0.34 0.34 0 0 Z " fill="#AFB0B2" transform="translate(112,254)"/>
<path d="M0 0 C0.99 0.33 1.98 0.66 3 1 C2.835 1.70125 2.67 2.4025 2.5 3.125 C1.97584662 6.13888194 1.92900317 8.94713625 2 12 C-0.64465038 8.8745041 -1.84414715 5.91211733 -3 2 C-2.01 1.34 -1.02 0.68 0 0 Z " fill="#737375" transform="translate(75,180)"/>
<path d="M0 0 C0.66 0 1.32 0 2 0 C3.66666667 1.66666667 5.33333333 3.33333333 7 5 C7.7425 5.350625 8.485 5.70125 9.25 6.0625 C11 7 11 7 11.75 9.125 C11.87375 10.053125 11.87375 10.053125 12 11 C11.278125 10.54625 10.55625 10.0925 9.8125 9.625 C7.11302968 7.92256621 7.11302968 7.92256621 4.3125 7.1875 C2 6 2 6 0.6875 2.875 C0.460625 1.92625 0.23375 0.9775 0 0 Z " fill="#838486" transform="translate(138,103)"/>
<path d="M0 0 C0.33 0 0.66 0 1 0 C2.3442623 5.37704918 2.3442623 5.37704918 0.6875 8.375 C-1 10 -1 10 -3 10 C-3.33 10.66 -3.66 11.32 -4 12 C-4.66 11.67 -5.32 11.34 -6 11 C-4.02 7.37 -2.04 3.74 0 0 Z " fill="#8C8D90" transform="translate(226,180)"/>
<path d="M0 0 C0.66 0 1.32 0 2 0 C1.52651586 4.1666604 0.95303159 6.92884715 -2 10 C-2.66 10 -3.32 10 -4 10 C-4 8.35 -4 6.7 -4 5 C-3.34 5 -2.68 5 -2 5 C-1.67 4.01 -1.34 3.02 -1 2 C-0.67 1.34 -0.34 0.68 0 0 Z " fill="#D3D3D4" transform="translate(283,225)"/>
<path d="M0 0 C1.4606285 2.64738916 2 3.89448334 2 7 C1.67 7.66 1.34 8.32 1 9 C-0.65 9 -2.3 9 -4 9 C-2.94124926 5.59687262 -1.99097846 2.98646769 0 0 Z " fill="#DDDEE0" transform="translate(203,261)"/>
<path d="M0 0 C1.65 0 3.3 0 5 0 C5.33 1.32 5.66 2.64 6 4 C5.34 4 4.68 4 4 4 C4 4.99 4 5.98 4 7 C2.68 6.67 1.36 6.34 0 6 C0 4.02 0 2.04 0 0 Z " fill="#96989A" transform="translate(110,103)"/>
<path d="M0 0 C1.26942301 3.80826903 0.58078675 5.48101926 -0.8125 9.125 C-2.24347357 11.38443195 -3.55040611 12.02016244 -6 13 C-5.34215037 9.70319035 -4.10579427 7.15882078 -2.4375 4.25 C-1.98246094 3.45078125 -1.52742187 2.6515625 -1.05859375 1.828125 C-0.53458984 0.92320312 -0.53458984 0.92320312 0 0 Z " fill="#696A6C" transform="translate(163,298)"/>
<path d="M0 0 C2.2477975 2.05233685 3.0022242 3.00667261 4 6 C6.50447516 7.21869929 6.50447516 7.21869929 9 8 C8.67 9.32 8.34 10.64 8 12 C7.01 12 6.02 12 5 12 C4.16180842 10.37750059 3.3295884 8.75191503 2.5 7.125 C2.0359375 6.22007812 1.571875 5.31515625 1.09375 4.3828125 C0 2 0 2 0 0 Z " fill="#D4D4D6" transform="translate(109,214)"/>
<path d="M0 0 C0.66 0.33 1.32 0.66 2 1 C0.60667426 4.36720387 -0.9789286 5.9859524 -4 8 C-4 4 -4 4 -2 1.75 C-1.01 0.88375 -1.01 0.88375 0 0 Z " fill="#E0E0E2" transform="translate(164,238)"/>
<path d="M0 0 C0.66 0.33 1.32 0.66 2 1 C2.99 0.67 3.98 0.34 5 0 C4.40138258 2.35171131 3.73075648 4.6859378 3 7 C2.01 7.495 2.01 7.495 1 8 C0.26919734 6.02253397 -0.39421747 4.01927511 -1 2 C-0.67 1.34 -0.34 0.68 0 0 Z " fill="#6F6F6F" transform="translate(48,134)"/>
<path d="M0 0 C0.66 0.33 1.32 0.66 2 1 C1.34 2.32 0.68 3.64 0 5 C-2.31 5 -4.62 5 -7 5 C-7 4.34 -7 3.68 -7 3 C-4.69631264 1.93347808 -2.35981813 0.93578995 0 0 Z " fill="#97999B" transform="translate(157,320)"/>
<path d="M0 0 C0.66 0.33 1.32 0.66 2 1 C0.68 3.31 -0.64 5.62 -2 8 C-2.66 7.67 -3.32 7.34 -4 7 C-4 6.34 -4 5.68 -4 5 C-4.99 4.67 -5.98 4.34 -7 4 C-6.01 4 -5.02 4 -4 4 C-3.67 3.34 -3.34 2.68 -3 2 C-2.67 2.33 -2.34 2.66 -2 3 C-1.34 2.01 -0.68 1.02 0 0 Z " fill="#939496" transform="translate(237,316)"/>
<path d="M0 0 C-0.33 1.32 -0.66 2.64 -1 4 C-2.32 4 -3.64 4 -5 4 C-5.66 4.66 -6.32 5.32 -7 6 C-7 4.35 -7 2.7 -7 1 C-4 0 -4 0 0 0 Z " fill="#E0E0E2" transform="translate(278,239)"/>
<path d="M0 0 C1.134375 0.020625 2.26875 0.04125 3.4375 0.0625 C3.4375 1.0525 3.4375 2.0425 3.4375 3.0625 C0.10416667 6.0625 0.10416667 6.0625 -2.5625 6.0625 C-2.2325 4.7425 -1.9025 3.4225 -1.5625 2.0625 C-2.5525 1.7325 -3.5425 1.4025 -4.5625 1.0625 C-3.5625 0.0625 -3.5625 0.0625 0 0 Z " fill="#979799" transform="translate(246.5625,141.9375)"/>
<path d="M0 0 C0.99 0.33 1.98 0.66 3 1 C1.515 4.465 1.515 4.465 0 8 C-0.66 7.34 -1.32 6.68 -2 6 C-1.44444444 1.44444444 -1.44444444 1.44444444 0 0 Z " fill="#767779" transform="translate(193,273)"/>
<path d="M0 0 C1.98 0 3.96 0 6 0 C5.25 1.9375 5.25 1.9375 4 4 C1.875 4.75 1.875 4.75 0 5 C0 3.35 0 1.7 0 0 Z " fill="#DADADC" transform="translate(167,231)"/>
<path d="M0 0 C1.65 0 3.3 0 5 0 C4.67 1.65 4.34 3.3 4 5 C2.68 5.33 1.36 5.66 0 6 C0 4.02 0 2.04 0 0 Z " fill="#C7C7C8" transform="translate(290,207)"/>
<path d="M0 0 C2.375 -0.1875 2.375 -0.1875 5 0 C5.66 0.99 6.32 1.98 7 3 C5.68 4.32 4.36 5.64 3 7 C2.01 4.69 1.02 2.38 0 0 Z " fill="#6B6D6D" transform="translate(141,110)"/>
<path d="M0 0 C0.99 0.495 0.99 0.495 2 1 C3.32 1 4.64 1 6 1 C6.66 1.33 7.32 1.66 8 2 C7.67 2.66 7.34 3.32 7 4 C2.52459016 5.26229508 2.52459016 5.26229508 0 4 C0 2.68 0 1.36 0 0 Z " fill="#E3E5E7" transform="translate(135,262)"/>
<path d="M0 0 C1.65 0.33 3.3 0.66 5 1 C4.34 2.32 3.68 3.64 3 5 C1.68 4.67 0.36 4.34 -1 4 C-0.67 2.68 -0.34 1.36 0 0 Z " fill="#E6E6E8" transform="translate(265,254)"/>
<path d="M0 0 C0.99 0 1.98 0 3 0 C1.55746343 3.36591866 -0.33264727 5.51047079 -3 8 C-3.33 7.01 -3.66 6.02 -4 5 C-3.34 5 -2.68 5 -2 5 C-1.34 3.35 -0.68 1.7 0 0 Z " fill="#E2E3E5" transform="translate(152,252)"/>
<path d="M0 0 C1.9375 0.75 1.9375 0.75 4 2 C4.875 4 4.875 4 5 6 C4.34 6.66 3.68 7.32 3 8 C0.37613513 4.93882432 0 4.26826873 0 0 Z " fill="#CACCCB" transform="translate(158,191)"/>
<path d="M0 0 C1.32 0 2.64 0 4 0 C2.25 5.75 2.25 5.75 0 8 C-0.98120464 4.94736336 -0.98120464 3.05263664 0 0 Z " fill="#B7B9B9" transform="translate(306,179)"/>
<path d="M0 0 C2.4375 0.375 2.4375 0.375 5 1 C5.33 1.66 5.66 2.32 6 3 C5.01 4.32 4.02 5.64 3 7 C0 2.25 0 2.25 0 0 Z " fill="#6C6D6F" transform="translate(160,248)"/>
<path d="M0 0 C2.475 0.495 2.475 0.495 5 1 C4.814375 1.598125 4.62875 2.19625 4.4375 2.8125 C3.77906313 5.16408762 3.77906313 5.16408762 5 8 C4.34 8 3.68 8 3 8 C0 2.25 0 2.25 0 0 Z " fill="#A7A8AA" transform="translate(105,243)"/>
<path d="M0 0 C0.33 0.99 0.66 1.98 1 3 C-0.9375 5.6875 -0.9375 5.6875 -3 8 C-3.625 6.1875 -3.625 6.1875 -4 4 C-2 1 -2 1 0 0 Z " fill="#7E7E7F" transform="translate(211,243)"/>
<path d="M0 0 C0.66 0.66 1.32 1.32 2 2 C0.625 4.5 0.625 4.5 -1 7 C-1.66 7 -2.32 7 -3 7 C-3.33 5.68 -3.66 4.36 -4 3 C-2.68 2.01 -1.36 1.02 0 0 Z " fill="#707072" transform="translate(171,236)"/>
<path d="M0 0 C1.32 0.33 2.64 0.66 4 1 C3.01 2.98 2.02 4.96 1 7 C0.01 5.68 -0.98 4.36 -2 3 C-1.34 2.67 -0.68 2.34 0 2 C0 1.34 0 0.68 0 0 Z " fill="#6F6F70" transform="translate(147,115)"/>
<path d="M0 0 C2.45484649 2.13464912 3.68134222 3.70720291 4 7 C3.34 7.66 2.68 8.32 2 9 C0.79371992 6.66785852 -0.1654738 4.50357861 -1 2 C-0.67 1.34 -0.34 0.68 0 0 Z " fill="#9B9C9E" transform="translate(129,132)"/>
<path d="M0 0 C-1.22934015 3.68802044 -2.93859378 4.72356973 -6 7 C-5.6875 4.625 -5.6875 4.625 -5 2 C-2 0 -2 0 0 0 Z " fill="#BBBCBE" transform="translate(253,286)"/>
<path d="M0 0 C1.32 1.65 2.64 3.3 4 5 C3.67 5.66 3.34 6.32 3 7 C2.01 7 1.02 7 0 7 C-0.93423645 3.98968256 -1.04449911 3.13349732 0 0 Z " fill="#A7A7A9" transform="translate(120,238)"/>
<path d="M0 0 C0.99 0.33 1.98 0.66 3 1 C2.01 2.98 1.02 4.96 0 7 C-0.66 6.34 -1.32 5.68 -2 5 C-1.46428571 1.46428571 -1.46428571 1.46428571 0 0 Z " fill="#8A8C8F" transform="translate(220,224)"/>
<path d="M0 0 C1 3 1 3 0.25 5.5625 C-1 8 -1 8 -4 10 C-2.8905928 6.51329166 -1.73662334 3.22515763 0 0 Z " fill="#A1A2A3" transform="translate(243,148)"/>
<path d="M0 0 C0.66 0.33 1.32 0.66 2 1 C1.67 2.32 1.34 3.64 1 5 C-0.65 5.33 -2.3 5.66 -4 6 C-2.68 4.02 -1.36 2.04 0 0 Z " fill="#7D7E80" transform="translate(152,256)"/>
<path d="M0 0 C-1 2 -2 4 -3 6 C-3.99 5.67 -4.98 5.34 -6 5 C-3.74193548 0 -3.74193548 0 0 0 Z " fill="#808080" transform="translate(214,209)"/>
<path d="M0 0 C0.66 0.33 1.32 0.66 2 1 C1.75 3.375 1.75 3.375 1 6 C-1.0625 7.3125 -1.0625 7.3125 -3 8 C-1.125 2.25 -1.125 2.25 0 0 Z " fill="#7D7E81" transform="translate(215,200)"/>
<path d="M0 0 C0.66 0 1.32 0 2 0 C5.11450382 4.15267176 5.11450382 4.15267176 4.6875 7.3125 C4.460625 7.869375 4.23375 8.42625 4 9 C0 2.25 0 2.25 0 0 Z " fill="#7A7B7D" transform="translate(80,165)"/>
<path d="M0 0 C1.32 1.65 2.64 3.3 4 5 C1.37886292 5 -0.50935112 4.68707555 -3 4 C-2.01 2.68 -1.02 1.36 0 0 Z " fill="#A4A5A7" transform="translate(138,149)"/>
<path d="M0 0 C1.65 0 3.3 0 5 0 C4.34 1.65 3.68 3.3 3 5 C2.34 5 1.68 5 1 5 C0.67 3.35 0.34 1.7 0 0 Z " fill="#98999B" transform="translate(343,103)"/>
</svg>
